<svg xmlns="http://www.w3.org/2000/svg" xmlns:xlink="http://www.w3.org/1999/xlink" id="processonSvg1000" viewBox="79.0 40.0 992.0 413.0" width="992.0" height="413.0"><defs id="ProcessOnDefs1001"><marker id="ProcessOnMarker1011" markerUnits="userSpaceOnUse" orient="auto" markerWidth="16.23606797749979" markerHeight="10.550836550532098" viewBox="-1.0 -1.3763819204711736 16.23606797749979 10.550836550532098" refX="-1.0" refY="3.8990363547948754"><path id="ProcessOnPath1012" d="M12.0 3.8990363547948754L0.0 7.798072709589751V0.0Z" stroke="#323232" stroke-width="2.0" fill="#323232" transform="matrix(1.0,0.0,0.0,1.0,0.0,0.0)"/></marker><marker id="ProcessOnMarker1029" markerUnits="userSpaceOnUse" orient="auto" markerWidth="16.23606797749979" markerHeight="10.550836550532098" viewBox="-1.0 -1.3763819204711736 16.23606797749979 10.550836550532098" refX="-1.0" refY="3.8990363547948754"><path id="ProcessOnPath1030" d="M12.0 3.8990363547948754L0.0 7.798072709589751V0.0Z" stroke="#323232" stroke-width="2.0" fill="#323232" transform="matrix(1.0,0.0,0.0,1.0,0.0,0.0)"/></marker><marker id="ProcessOnMarker1033" markerUnits="userSpaceOnUse" orient="auto" markerWidth="16.23606797749979" markerHeight="10.550836550532098" viewBox="-1.0 -1.3763819204711736 16.23606797749979 10.550836550532098" refX="-1.0" refY="3.8990363547948754"><path id="ProcessOnPath1034" d="M12.0 3.8990363547948754L0.0 7.798072709589751V0.0Z" stroke="#323232" stroke-width="2.0" fill="#323232" transform="matrix(1.0,0.0,0.0,1.0,0.0,0.0)"/></marker><marker id="ProcessOnMarker1042" markerUnits="userSpaceOnUse" orient="auto" markerWidth="16.23606797749979" markerHeight="10.550836550532098" viewBox="-1.0 -1.3763819204711736 16.23606797749979 10.550836550532098" refX="-1.0" refY="3.8990363547948754"><path id="ProcessOnPath1043" d="M12.0 3.8990363547948754L0.0 7.798072709589751V0.0Z" stroke="#323232" stroke-width="2.0" fill="#323232" transform="matrix(1.0,0.0,0.0,1.0,0.0,0.0)"/></marker><marker id="ProcessOnMarker1051" markerUnits="userSpaceOnUse" orient="auto" markerWidth="16.23606797749979" markerHeight="10.550836550532098" viewBox="-1.0 -1.3763819204711736 16.23606797749979 10.550836550532098" refX="-1.0" refY="3.8990363547948754"><path id="ProcessOnPath1052" d="M12.0 3.8990363547948754L0.0 7.798072709589751V0.0Z" stroke="#323232" stroke-width="2.0" fill="#323232" transform="matrix(1.0,0.0,0.0,1.0,0.0,0.0)"/></marker><marker id="ProcessOnMarker1070" markerUnits="userSpaceOnUse" orient="auto" markerWidth="16.23606797749979" markerHeight="10.550836550532098" viewBox="-1.0 -1.3763819204711736 16.23606797749979 10.550836550532098" refX="-1.0" refY="3.8990363547948754"><path id="ProcessOnPath1071" d="M12.0 3.8990363547948754L0.0 7.798072709589751V0.0Z" stroke="#323232" stroke-width="2.0" fill="#323232" transform="matrix(1.0,0.0,0.0,1.0,0.0,0.0)"/></marker><marker id="ProcessOnMarker1074" markerUnits="userSpaceOnUse" orient="auto" markerWidth="16.23606797749979" markerHeight="10.550836550532098" viewBox="-1.0 -1.3763819204711736 16.23606797749979 10.550836550532098" refX="-1.0" refY="3.8990363547948754"><path id="ProcessOnPath1075" d="M12.0 3.8990363547948754L0.0 7.798072709589751V0.0Z" stroke="#323232" stroke-width="2.0" fill="#323232" transform="matrix(1.0,0.0,0.0,1.0,0.0,0.0)"/></marker><marker id="ProcessOnMarker1084" markerUnits="userSpaceOnUse" orient="auto" markerWidth="16.23606797749979" markerHeight="10.550836550532098" viewBox="-1.0 -1.3763819204711736 16.23606797749979 10.550836550532098" refX="-1.0" refY="3.8990363547948754"><path id="ProcessOnPath1085" d="M12.0 3.8990363547948754L0.0 7.798072709589751V0.0Z" stroke="#323232" stroke-width="2.0" fill="#323232" transform="matrix(1.0,0.0,0.0,1.0,0.0,0.0)"/></marker><marker id="ProcessOnMarker1093" markerUnits="userSpaceOnUse" orient="auto" markerWidth="16.23606797749979" markerHeight="10.550836550532098" viewBox="-1.0 -1.3763819204711736 16.23606797749979 10.550836550532098" refX="-1.0" refY="3.8990363547948754"><path id="ProcessOnPath1094" d="M12.0 3.8990363547948754L0.0 7.798072709589751V0.0Z" stroke="#323232" stroke-width="2.0" fill="#323232" transform="matrix(1.0,0.0,0.0,1.0,0.0,0.0)"/></marker></defs><g id="ProcessOnG1002"><path id="ProcessOnPath1003" d="M79.0 40.0H1071.0V453.0H79.0V40.0Z" fill="none"/><g id="ProcessOnG1004"><g id="ProcessOnG1005" transform="matrix(1.0,0.0,0.0,1.0,99.0,254.5)" opacity="1.0"><path id="ProcessOnPath1006" d="M16.666666666666668 0.0L83.33333333333333 0.0C105.55555555555556 0.0 105.55555555555556 50.0 83.33333333333333 50.0L16.666666666666668 50.0C-5.555555555555556 50.0 -5.555555555555556 0.0 16.666666666666668 0.0Z" stroke="#323232" stroke-width="2.0" stroke-dasharray="none" opacity="1.0" fill="#ffffff"/><g id="ProcessOnG1007" transform="matrix(1.0,0.0,0.0,1.0,10.0,16.875)"><text id="ProcessOnText1008" fill="#000000" font-size="13" x="39.0" y="13.325" font-family="微软雅黑" font-weight="normal" font-style="normal" text-decoration="none" family="微软雅黑" text-anchor="middle" size="13">准备资源文件</text></g></g><g id="ProcessOnG1009"><path id="ProcessOnPath1010" d="M199.0 279.5L220.5 279.5L220.5 279.5L226.7639320225002 279.5" stroke="#323232" stroke-width="2.0" stroke-dasharray="none" fill="none" marker-end="url(#ProcessOnMarker1011)"/></g><g id="ProcessOnG1013" transform="matrix(1.0,0.0,0.0,1.0,242.0,247.0)" opacity="1.0"><path id="ProcessOnPath1014" d="M0.0 0.0L116.0 0.0L116.0 65.0L0.0 65.0Z" stroke="#323232" stroke-width="2.0" stroke-dasharray="none" opacity="1.0" fill="#ffffff"/><g id="ProcessOnG1015" transform="matrix(1.0,0.0,0.0,1.0,10.0,16.25)"><text id="ProcessOnText1016" fill="#000000" font-size="13" x="47.0" y="13.325" font-family="微软雅黑" font-weight="normal" font-style="normal" text-decoration="none" family="微软雅黑" text-anchor="middle" size="13">打包皮肤资源ap</text><text id="ProcessOnText1017" fill="#000000" font-size="13" x="47.0" y="29.575" font-family="微软雅黑" font-weight="normal" font-style="normal" text-decoration="none" family="微软雅黑" text-anchor="middle" size="13">k，后缀：.skin</text></g></g><g id="ProcessOnG1018" transform="matrix(1.0,0.0,0.0,1.0,218.0,150.0)" opacity="1.0"><path id="ProcessOnPath1019" d="M0.0 0.0L214.0 0.0L214.0 38.0L0.0 38.0Z" stroke="none" stroke-width="0.0" stroke-dasharray="none" opacity="1.0" fill="none"/><g id="ProcessOnG1020" transform="matrix(1.0,0.0,0.0,1.0,0.0,-5.375)"><text id="ProcessOnText1021" fill="#000000" font-size="13" x="0.0" y="13.325" font-family="微软雅黑" font-weight="normal" font-style="normal" text-decoration="none" family="微软雅黑" text-anchor="start" size="13">1、只有资源文件的apk</text><text id="ProcessOnText1022" fill="#000000" font-size="13" x="0.0" y="29.575" font-family="微软雅黑" font-weight="normal" font-style="normal" text-decoration="none" family="微软雅黑" text-anchor="start" size="13">2、文件命名需要和默认的名字一样</text><text id="ProcessOnText1023" fill="#000000" font-size="13" x="0.0" y="45.825" font-family="微软雅黑" font-weight="normal" font-style="normal" text-decoration="none" family="微软雅黑" text-anchor="start" size="13">3、签名没有限制</text></g></g><g id="ProcessOnG1024" transform="matrix(1.0,0.0,0.0,1.0,209.0,134.0)" opacity="1.0"><path id="ProcessOnPath1025" d="M16.666666666666668 0.0L0.0 0.0L0.0 70.0L16.666666666666668 70.0" stroke="#323232" stroke-width="2.0" stroke-dasharray="none" opacity="1.0" fill="none"/><path id="ProcessOnPath1026" d="M0.0 0.0L100.0 0.0L100.0 70.0L0.0 70.0Z" stroke="none" stroke-width="0.0" stroke-dasharray="none" opacity="1.0" fill="none"/></g><g id="ProcessOnG1027"><path id="ProcessOnPath1028" d="M209.0 169.0L179.0 169.0L179.0 225.5L300.0 225.5L300.0 231.7639320225002" stroke="#323232" stroke-width="2.0" stroke-dasharray="none" fill="none" marker-end="url(#ProcessOnMarker1029)"/></g><g id="ProcessOnG1031"><path id="ProcessOnPath1032" d="M358.0 279.5L378.0 279.5L378.0 279.5L382.7639320225002 279.5" stroke="#323232" stroke-width="2.0" stroke-dasharray="none" fill="none" marker-end="url(#ProcessOnMarker1033)"/></g><g id="ProcessOnG1035" transform="matrix(1.0,0.0,0.0,1.0,398.0,244.5)" opacity="1.0"><path id="ProcessOnPath1036" d="M0.0 0.0L100.0 0.0L100.0 70.0L0.0 70.0Z" stroke="#323232" stroke-width="2.0" stroke-dasharray="none" opacity="1.0" fill="#ffffff"/><g id="ProcessOnG1037" transform="matrix(1.0,0.0,0.0,1.0,10.0,18.75)"><text id="ProcessOnText1038" fill="#000000" font-size="13" x="39.0" y="13.325" font-family="微软雅黑" font-weight="normal" font-style="normal" text-decoration="none" family="微软雅黑" text-anchor="middle" size="13">一系列初始化</text><text id="ProcessOnText1039" fill="#000000" font-size="13" x="39.0" y="29.575" font-family="微软雅黑" font-weight="normal" font-style="normal" text-decoration="none" family="微软雅黑" text-anchor="middle" size="13">操作</text></g></g><g id="ProcessOnG1040"><path id="ProcessOnPath1041" d="M498.0 279.5L515.5 279.5L515.5 279.5L517.7639320225002 279.5" stroke="#323232" stroke-width="2.0" stroke-dasharray="none" fill="none" marker-end="url(#ProcessOnMarker1042)"/></g><g id="ProcessOnG1044" transform="matrix(1.0,0.0,0.0,1.0,533.0,244.5)" opacity="1.0"><path id="ProcessOnPath1045" d="M0.0 0.0L166.0 0.0L166.0 70.0L0.0 70.0Z" stroke="#323232" stroke-width="2.0" stroke-dasharray="none" opacity="1.0" fill="#ffffff"/><g id="ProcessOnG1046" transform="matrix(1.0,0.0,0.0,1.0,10.0,18.75)"><text id="ProcessOnText1047" fill="#000000" font-size="13" x="72.0" y="13.325" font-family="微软雅黑" font-weight="normal" font-style="normal" text-decoration="none" family="微软雅黑" text-anchor="middle" size="13">得到皮肤apk的包名并创</text><text id="ProcessOnText1048" fill="#000000" font-size="13" x="72.0" y="29.575" font-family="微软雅黑" font-weight="normal" font-style="normal" text-decoration="none" family="微软雅黑" text-anchor="middle" size="13">建皮肤apk的资源实例</text></g></g><g id="ProcessOnG1049"><path id="ProcessOnPath1050" d="M699.0 279.5L726.5 279.5L726.5 279.5L738.7639320225002 279.5" stroke="#323232" stroke-width="2.0" stroke-dasharray="none" fill="none" marker-end="url(#ProcessOnMarker1051)"/></g><g id="ProcessOnG1053" transform="matrix(1.0,0.0,0.0,1.0,754.0,244.5)" opacity="1.0"><path id="ProcessOnPath1054" d="M0.0 0.0L168.0 0.0L168.0 70.0L0.0 70.0Z" stroke="#323232" stroke-width="2.0" stroke-dasharray="none" opacity="1.0" fill="#ffffff"/><g id="ProcessOnG1055" transform="matrix(1.0,0.0,0.0,1.0,10.0,10.625)"><text id="ProcessOnText1056" fill="#000000" font-size="13" x="73.0" y="13.325" font-family="微软雅黑" font-weight="normal" font-style="normal" text-decoration="none" family="微软雅黑" text-anchor="middle" size="13">自定义InflaterFactory来</text><text id="ProcessOnText1057" fill="#000000" font-size="13" x="73.0" y="29.575" font-family="微软雅黑" font-weight="normal" font-style="normal" text-decoration="none" family="微软雅黑" text-anchor="middle" size="13">替换默认LayoutInflaterF</text><text id="ProcessOnText1058" fill="#000000" font-size="13" x="73.0" y="45.825" font-family="微软雅黑" font-weight="normal" font-style="normal" text-decoration="none" family="微软雅黑" text-anchor="middle" size="13">actory</text></g></g><g id="ProcessOnG1059" transform="matrix(1.0,0.0,0.0,1.0,707.0,60.0)" opacity="1.0"><path id="ProcessOnPath1060" d="M20.0 0.0L0.0 0.0L0.0 120.0L20.0 120.0" stroke="#323232" stroke-width="2.0" stroke-dasharray="none" opacity="1.0" fill="none"/><path id="ProcessOnPath1061" d="M0.0 0.0L251.0 0.0L251.0 120.0L0.0 120.0Z" stroke="none" stroke-width="0.0" stroke-dasharray="none" opacity="1.0" fill="none"/><g id="ProcessOnG1062" transform="matrix(1.0,0.0,0.0,1.0,10.0,19.375)"><text id="ProcessOnText1063" fill="#000000" font-size="13" x="0.0" y="13.325" font-family="微软雅黑" font-weight="normal" font-style="normal" text-decoration="none" family="微软雅黑" text-anchor="start" size="13">1、相当于起一个过滤的作用，获取所有</text><text id="ProcessOnText1064" fill="#000000" font-size="13" x="0.0" y="29.575" font-family="微软雅黑" font-weight="normal" font-style="normal" text-decoration="none" family="微软雅黑" text-anchor="start" size="13">可以换肤的View</text><text id="ProcessOnText1065" fill="#000000" font-size="13" x="0.0" y="45.825" font-family="微软雅黑" font-weight="normal" font-style="normal" text-decoration="none" family="微软雅黑" text-anchor="start" size="13">2、获取到后再获取其背景颜色等属性。</text><text id="ProcessOnText1066" fill="#000000" font-size="13" x="0.0" y="62.075" font-family="微软雅黑" font-weight="normal" font-style="normal" text-decoration="none" family="微软雅黑" text-anchor="start" size="13">3、判断皮肤apk资源里是否有对应名字</text><text id="ProcessOnText1067" fill="#000000" font-size="13" x="0.0" y="78.325" font-family="微软雅黑" font-weight="normal" font-style="normal" text-decoration="none" family="微软雅黑" text-anchor="start" size="13">的资源，有则替换，无则默认。</text></g></g><g id="ProcessOnG1068"><path id="ProcessOnPath1069" d="M707.0 120.0L677.0 120.0L677.0 214.5L838.0 214.5L838.0 229.2639320225002" stroke="#323232" stroke-width="2.0" stroke-dasharray="none" fill="none" marker-end="url(#ProcessOnMarker1070)"/></g><g id="ProcessOnG1072"><path id="ProcessOnPath1073" d="M922.0 279.5L936.5 279.5L936.5 279.5L937.5 279.5" stroke="#323232" stroke-width="2.0" stroke-dasharray="none" fill="none" marker-end="url(#ProcessOnMarker1074)"/></g><g id="ProcessOnG1076" transform="matrix(1.0,0.0,0.0,1.0,951.0,254.5)" opacity="1.0"><path id="ProcessOnPath1077" d="M16.666666666666668 0.0L83.33333333333333 0.0C105.55555555555556 0.0 105.55555555555556 50.0 83.33333333333333 50.0L16.666666666666668 50.0C-5.555555555555556 50.0 -5.555555555555556 0.0 16.666666666666668 0.0Z" stroke="#323232" stroke-width="2.0" stroke-dasharray="none" opacity="1.0" fill="#ffffff"/><g id="ProcessOnG1078" transform="matrix(1.0,0.0,0.0,1.0,10.0,0.625)"><text id="ProcessOnText1079" fill="#000000" font-size="13" x="39.0" y="13.325" font-family="微软雅黑" font-weight="normal" font-style="normal" text-decoration="none" family="微软雅黑" text-anchor="middle" size="13">更新后保存皮</text><text id="ProcessOnText1080" fill="#000000" font-size="13" x="39.0" y="29.575" font-family="微软雅黑" font-weight="normal" font-style="normal" text-decoration="none" family="微软雅黑" text-anchor="middle" size="13">肤参数值(位</text><text id="ProcessOnText1081" fill="#000000" font-size="13" x="39.0" y="45.825" font-family="微软雅黑" font-weight="normal" font-style="normal" text-decoration="none" family="微软雅黑" text-anchor="middle" size="13">置信息)</text></g></g><g id="ProcessOnG1082"><path id="ProcessOnPath1083" d="M1001.0 304.5L1001.0 341.75L1001.0 341.75L1001.0 363.7639320225002" stroke="#323232" stroke-width="2.0" stroke-dasharray="none" fill="none" marker-end="url(#ProcessOnMarker1084)"/></g><g id="ProcessOnG1086" transform="matrix(1.0,0.0,0.0,1.0,973.5,379.0)" opacity="1.0"><path id="ProcessOnPath1087" d="M0.0 27.0C0.0 -9.0 55.0 -9.0 55.0 27.0C55.0 63.0 0.0 63.0 0.0 27.0Z" stroke="#323232" stroke-width="2.0" stroke-dasharray="none" opacity="1.0" fill="#ffffff"/><g id="ProcessOnG1088" transform="matrix(1.0,0.0,0.0,1.0,10.0,10.75)"><text id="ProcessOnText1089" fill="#000000" font-size="13" x="16.5" y="13.325" font-family="微软雅黑" font-weight="normal" font-style="normal" text-decoration="none" family="微软雅黑" text-anchor="middle" size="13">下次</text><text id="ProcessOnText1090" fill="#000000" font-size="13" x="16.5" y="29.575" font-family="微软雅黑" font-weight="normal" font-style="normal" text-decoration="none" family="微软雅黑" text-anchor="middle" size="13">启动</text></g></g><g id="ProcessOnG1091"><path id="ProcessOnPath1092" d="M973.5 406.0L448.0 406.0L448.0 329.7360679774998" stroke="#323232" stroke-width="2.0" stroke-dasharray="none" fill="none" marker-end="url(#ProcessOnMarker1093)"/></g></g></g></svg>